HIERARCHY
ROOT root
{
	OFFSET 0.000000 0.000000 0.000000
	CHANNELS 6 Xposition Yposition Zposition Zrotation Yrotation Xrotation
	JOINT lhip
	{
		OFFSET 0.058581 -0.082280 -0.017664
		CHANNELS 3 Zrotation Yrotation Xrotation
		JOINT lknee
		{
			OFFSET 0.043451 -0.386469 0.008037
			CHANNELS 3 Zrotation Yrotation Xrotation
			JOINT lankle
			{
				OFFSET -0.014790 -0.426874 -0.037428
				CHANNELS 3 Zrotation Yrotation Xrotation
				JOINT ltoe
				{
					OFFSET 0.041054 -0.060286 0.122042
					CHANNELS 3 Zrotation Yrotation Xrotation
					End Site
					{
						OFFSET 0.000000 0.000000 0.000000
					}
				}
			}
		}
	}
	JOINT rhip
	{
		OFFSET -0.060310 -0.090513 -0.013543
		CHANNELS 3 Zrotation Yrotation Xrotation
		JOINT rknee
		{
			OFFSET -0.043257 -0.383688 -0.004843
			CHANNELS 3 Zrotation Yrotation Xrotation
			JOINT rankle
			{
				OFFSET 0.019056 -0.420046 -0.034562
				CHANNELS 3 Zrotation Yrotation Xrotation
				JOINT rtoe
				{
					OFFSET -0.034840 -0.062106 0.130323
					CHANNELS 3 Zrotation Yrotation Xrotation
					End Site
					{
						OFFSET 0.000000 0.000000 0.000000
					}
				}
			}
		}
	}
	JOINT lowerback
	{
		OFFSET 0.004439 0.124404 -0.038385
		CHANNELS 3 Zrotation Yrotation Xrotation
		JOINT upperback
		{
			OFFSET 0.004488 0.137956 0.026820
			CHANNELS 3 Zrotation Yrotation Xrotation
			JOINT chest
			{
				OFFSET -0.002265 0.056032 0.002855
				CHANNELS 3 Zrotation Yrotation Xrotation
				JOINT lowerneck
				{
					OFFSET -0.013390 0.211636 -0.033468
					CHANNELS 3 Zrotation Yrotation Xrotation
					JOINT upperneck
					{
						OFFSET 0.010113 0.088937 0.050410
						CHANNELS 3 Zrotation Yrotation Xrotation
						End Site
						{
							OFFSET 0.000000 0.000000 0.000000
						}
					}
				}
				JOINT lclavicle
				{
					OFFSET 0.071702 0.114000 -0.018898
					CHANNELS 3 Zrotation Yrotation Xrotation
					JOINT lshoulder
					{
						OFFSET 0.122921 0.045205 -0.019046
						CHANNELS 3 Zrotation Yrotation Xrotation
						JOINT lelbow
						{
							OFFSET 0.255332 -0.015649 -0.022946
							CHANNELS 3 Zrotation Yrotation Xrotation
							JOINT lwrist
							{
								OFFSET 0.265709 0.012698 -0.007375
								CHANNELS 3 Zrotation Yrotation Xrotation
								End Site
								{
									OFFSET 0.000000 0.000000 0.000000
								}
							}
						}
					}
				}
				JOINT rclavicle
				{
					OFFSET -0.082954 0.112472 -0.023707
					CHANNELS 3 Zrotation Yrotation Xrotation
					JOINT rshoulder
					{
						OFFSET -0.113228 0.046853 -0.008472
						CHANNELS 3 Zrotation Yrotation Xrotation
						JOINT relbow
						{
							OFFSET -0.260127 -0.014369 -0.031269
							CHANNELS 3 Zrotation Yrotation Xrotation
							JOINT rwrist
							{
								OFFSET -0.269108 0.006794 -0.006027
								CHANNELS 3 Zrotation Yrotation Xrotation
								End Site
								{
									OFFSET 0.000000 0.000000 0.000000
								}
							}
						}
					}
				}
			}
		}
	}
}
MOTION
Frames: 14
Frame Time: 0.033333
-0.084272 0.587637 0.980513 -72.892592 -8.348917 84.011454 16.801061 1.058329 -6.883039 -7.268727 -5.702746 12.768967 -6.202565 7.838575 -6.738727 0.000000 -0.000000 0.000000 -18.040934 -3.778920 -10.958926 3.375347 2.187463 34.457174 6.320641 -6.975923 -19.545530 0.000000 -0.000000 0.000000 0.302273 2.134158 14.334027 -0.994841 3.198911 2.275213 -3.048304 1.816957 -0.599920 -0.064924 9.546906 -1.855871 -2.989230 1.112095 18.943172 -26.824972 9.098543 0.760486 -36.445417 -2.251633 8.710632 -2.461909 -46.939349 9.395464 -14.252754 -16.020220 -19.934334 28.927705 -0.857683 2.416532 29.828303 9.941879 7.897338 -13.347421 40.506844 -7.390021 32.936489 9.574558 -5.378680 
-0.089645 0.571893 0.976041 -74.515231 -7.976115 84.089294 16.870697 0.551851 -6.856025 -7.448728 -7.635794 13.261853 -7.073396 7.347763 -5.829008 0.000000 -0.000000 0.000000 -18.322950 -3.509713 -11.339644 3.321391 2.857426 35.270940 6.630661 -6.558640 -20.079304 0.000000 -0.000000 0.000000 0.520653 2.168551 14.291989 -0.799228 3.515862 2.200092 -2.965414 2.171668 -0.587769 0.611278 9.834521 -1.870146 -3.227575 1.159396 19.353628 -26.881600 9.620696 0.221171 -36.685356 -1.690373 9.072298 -2.073865 -46.924844 9.228247 -14.781435 -15.735319 -20.344863 28.836932 -0.653981 2.387337 29.876191 10.504976 8.135835 -13.515609 40.560548 -7.406133 33.950268 9.126583 -6.164943 
-0.095026 0.554798 0.971015 -76.572888 -7.493452 84.256637 17.028931 0.102683 -6.547581 -7.949558 -9.718769 14.207596 -7.807819 6.031786 -5.855293 0.000000 -0.000000 0.000000 -18.449041 -3.494386 -11.869209 3.032383 4.088607 36.109676 6.967029 -5.754680 -20.491527 0.000000 -0.000000 0.000000 0.657533 2.552018 14.218275 -0.508999 3.807268 2.150227 -2.875943 2.336275 -0.766228 0.888717 10.192246 -2.218538 -3.326288 0.686725 19.768120 -26.622826 9.860582 0.478920 -37.149234 -1.286400 8.910033 -1.884128 -46.568297 9.380036 -14.844111 -15.881118 -20.171864 29.026637 -0.500358 2.403435 29.841676 10.761767 8.074281 -13.462350 40.626336 -6.590424 35.617624 8.924072 -6.395722 
-0.099881 0.535402 0.965304 -78.445504 -6.663443 84.185159 17.202507 -0.765666 -5.998689 -8.839699 -12.562208 15.945308 -8.924549 5.205653 -5.860202 0.000000 -0.000000 0.000000 -18.572531 -2.982118 -12.103201 3.457047 5.020562 37.004289 7.297601 -5.880929 -21.078462 0.000000 -0.000000 0.000000 0.857984 2.708171 13.956716 -0.025968 4.046494 2.515124 -2.540023 2.418073 -0.816387 1.480889 10.403712 -2.204061 -3.700072 0.561402 19.444760 -26.555720 9.859478 0.485234 -37.383687 -1.021858 9.234926 -2.088230 -46.748022 9.947112 -15.461317 -15.244121 -20.324397 28.992029 -0.108427 2.515697 29.677701 10.888778 8.040294 -13.587415 40.899466 -7.047977 35.276858 8.895519 -6.841474 
-0.102799 0.513858 0.959116 -79.578111 -5.668967 84.061721 16.940404 -1.693589 -6.121535 -9.381727 -14.217997 18.581059 -9.514113 4.722765 -9.283050 0.000000 -0.000000 0.000000 -18.890697 -2.908254 -12.129585 3.604371 5.413161 37.221590 7.913345 -5.392550 -21.226466 0.000000 -0.000000 0.000000 1.261910 2.658812 14.329678 0.406465 3.770562 1.896866 -2.231193 2.217012 -0.757930 1.819717 10.407158 -2.542029 -3.750411 0.513926 19.198698 -26.200634 9.619548 0.768898 -37.767521 -1.139484 9.332579 -2.892343 -46.366389 10.917302 -16.312078 -15.943904 -20.736946 29.084653 -0.093052 2.267670 29.475449 11.104470 8.001913 -13.215426 40.777245 -6.567025 33.616094 9.629419 -5.779066 
-0.105276 0.490072 0.952708 -80.974134 -4.478233 84.011344 16.826650 -2.139537 -6.290882 -9.832978 -14.067961 22.145821 -7.821518 5.754997 -14.633651 0.000000 -0.000000 0.000000 -19.159229 -2.506408 -12.016747 3.980186 6.351833 37.136309 8.692144 -4.946348 -20.764476 0.000000 -0.000000 0.000000 1.551524 2.642896 14.520289 1.160440 3.389888 1.392066 -1.757347 1.948919 -0.507268 2.698728 9.819365 -2.898506 -3.807305 0.501555 19.961515 -25.994804 9.253922 1.022315 -38.146990 -1.275335 9.497743 -3.348774 -46.646287 11.103215 -15.518083 -16.150229 -20.777826 29.066563 -0.122577 1.709528 29.185145 11.113155 8.218401 -13.293418 41.032420 -7.198780 33.943801 8.988722 -6.097871 
-0.105969 0.465021 0.947274 -82.221970 -3.230846 83.843835 16.555853 -1.786955 -6.833176 -10.218551 -12.658037 25.219741 -5.886568 7.151827 -19.207446 0.000000 -0.000000 0.000000 -19.482822 -2.333762 -11.804981 4.217668 7.059322 36.814460 9.740063 -4.589913 -20.117537 0.000000 -0.000000 0.000000 1.647745 2.618954 15.159198 1.949487 3.001401 0.812662 -1.033752 1.668950 -0.338063 3.114182 9.600005 -4.027871 -3.868201 0.710504 20.281985 -25.828014 8.595434 1.221300 -38.467280 -1.905729 9.279998 -4.029955 -46.385912 11.972363 -15.667762 -16.867381 -20.567067 29.365492 -0.378664 1.264577 28.599239 11.181707 7.977259 -13.675782 41.178411 -7.385957 34.261918 9.090522 -5.438661 
-0.105363 0.439438 0.944741 -83.268437 -1.883141 83.745284 16.255053 -1.534826 -7.840632 -10.224870 -10.533189 28.295693 -4.816850 8.063180 -22.416708 0.000000 -0.000000 0.000000 -19.741918 -2.603132 -10.991459 3.986498 7.876472 34.811216 11.211466 -3.589668 -17.752374 0.000000 -0.000000 0.000000 1.712364 2.783338 15.622451 3.024449 2.086011 0.572096 -0.188449 1.130490 -0.350155 3.824121 8.796107 -4.053786 -3.791772 0.673304 20.102580 -25.775566 7.698529 1.529746 -38.710340 -2.527016 9.161250 -3.878553 -45.765654 12.169093 -17.568551 -16.531170 -19.969532 29.533539 -0.226006 0.890879 28.207377 11.033313 7.948710 -14.538262 40.993940 -8.321068 36.220612 8.196390 -5.938425 
-0.100738 0.414320 0.945507 -84.827885 -0.380285 83.774966 16.229203 -0.889706 -8.623486 -10.349708 -9.799251 30.531095 -3.604966 8.704630 -23.904477 0.000000 -0.000000 0.000000 -20.092324 -2.392370 -11.232045 4.462852 8.593101 33.079028 13.222462 -2.479169 -13.751074 0.000000 -0.000000 0.000000 1.858277 2.658056 16.593900 3.869702 1.631872 0.119416 0.632809 0.899349 -0.679430 4.034508 8.215589 -4.684092 -3.016239 0.214540 19.880143 -25.246942 6.621129 2.305566 -38.942810 -3.182819 8.924945 -4.136787 -45.503635 11.866070 -16.139737 -17.056731 -19.934657 29.598368 0.086394 1.223028 28.045727 11.134262 7.426862 -14.910972 40.658689 -9.412110 34.204735 8.901885 -5.304193 
-0.096108 0.389887 0.949054 -86.636994 1.180292 84.001689 16.536829 -0.358171 -8.653245 -10.034671 -8.598988 30.532118 -1.155814 8.633772 -24.776353 0.000000 -0.000000 0.000000 -20.478245 -2.348302 -11.362867 5.288288 8.870755 30.355478 14.103990 -1.425990 -9.500655 0.000000 -0.000000 0.000000 2.047129 2.556817 16.075405 4.971313 1.142571 1.348036 1.430542 0.401027 -0.737328 4.713082 8.412211 -4.736956 -3.319146 1.064292 19.809470 -24.933878 5.378905 2.912717 -39.095348 -4.207142 8.806675 -2.838440 -45.193596 10.472002 -15.792959 -17.108518 -19.488413 29.862035 0.596589 1.408542 27.808039 11.929188 7.324065 -15.509992 39.986282 -10.027733 34.141105 8.906690 -4.375973 
-0.090878 0.368391 0.954897 -88.815990 2.529387 84.550598 16.700157 -0.036442 -8.143421 -9.778997 -7.187651 29.258608 -0.768385 9.914615 -24.590931 0.000000 -0.000000 0.000000 -20.460063 -2.785836 -12.111784 5.816310 8.699368 27.706465 14.713167 -0.569473 -5.507486 0.000000 -0.000000 0.000000 1.960314 2.849621 15.694487 5.888340 0.791729 1.695419 2.181492 0.037862 -1.038590 4.991393 8.047516 -3.711823 -2.711969 -0.229042 19.622448 -23.754471 4.496465 3.452002 -39.029168 -4.674445 8.837881 -2.549601 -45.190695 9.895992 -17.943364 -16.224273 -19.067708 29.798515 0.866843 1.570904 28.269793 12.180617 7.294110 -15.596533 39.832605 -10.241037 34.564836 8.470238 -4.838648 
-0.084819 0.351787 0.962126 -90.003674 3.698215 85.149233 16.541210 0.625636 -8.426405 -9.136808 -6.721682 28.401068 -0.630088 10.490767 -24.559195 0.000000 -0.000000 0.000000 -19.833676 -3.059480 -12.433432 5.976759 8.692458 26.417135 14.341425 -0.755497 -7.215870 0.000000 -0.000000 0.000000 1.655577 2.348633 16.168502 6.565329 0.140087 0.237047 2.862815 -0.244289 -0.700505 5.737924 8.684340 -3.426896 -3.035486 0.676571 21.214819 -23.288609 4.649448 3.407406 -37.529959 -5.106992 8.402494 -3.467553 -45.287416 10.168777 -15.416145 -16.397207 -18.948364 30.320477 0.557503 1.552599 28.619652 12.488572 8.153595 -15.101206 40.206838 -9.782862 33.572246 8.840438 -4.794606 
-0.077565 0.337802 0.969673 -91.078936 4.503474 85.541014 16.250699 0.933520 -8.918985 -8.517117 -6.093120 28.036351 -0.663168 10.874587 -22.991515 0.000000 -0.000000 0.000000 -19.269295 -3.156417 -12.901447 5.674370 6.896629 26.590861 13.153324 -2.017659 -8.998874 0.000000 -0.000000 0.000000 1.314120 2.123299 16.531681 7.048616 -0.294439 -0.207830 3.299388 -0.536077 -0.677375 5.916358 9.465246 -3.207187 -3.056644 0.410616 21.495042 -22.669848 4.317989 3.251831 -36.062662 -5.577631 7.920252 -3.592130 -45.292689 9.552679 -16.047270 -16.358888 -18.844607 30.740501 0.509448 1.237261 29.031975 12.115312 8.909651 -14.883065 41.060028 -8.903095 33.344787 9.226919 -4.532464 
-0.069707 0.325826 0.977477 -92.118425 4.892797 85.505841 15.853627 1.292566 -8.501096 -8.074287 -5.659906 26.539041 -0.780345 10.931135 -21.458894 0.000000 -0.000000 0.000000 -19.033987 -3.767842 -13.005896 5.282519 4.183799 28.085410 12.763627 -3.912608 -9.603641 0.000000 -0.000000 0.000000 1.092439 1.908997 16.821524 7.188520 -0.596821 -0.018773 3.416169 -0.690011 -0.450390 5.629336 9.939991 -3.175641 -3.210207 1.077037 21.321829 -22.341520 3.539763 3.341208 -34.683902 -6.341066 6.957564 -2.593624 -45.265863 7.321355 -14.382348 -16.698195 -19.511189 30.846700 0.697109 1.310950 29.819720 11.757698 9.554899 -15.248386 41.421733 -8.824364 33.892030 9.148530 -4.926959 
